# xmcd CD database file
#
# Track frame offsets:
#	150
#	15240
#	35322
#	53462
#	73172
#	88025
#	102707
#	122352
#	140627
#	158072
#	176027
#	195207
#	212695
#	256442
#
# Disc length: 3905 seconds
#
# Revision: 0
# Processed by: cddbd v1.5.2PL0 Copyright (c) Steve Scherf et al.
# Submitted via: CDex 1.70beta2
#
DISCID=b70f3f0e
DTITLE=Grand National - Kicking The National Habit
DYEAR=2006
DGENRE=New Age
TTITLE0=Drink To Moving On
TTITLE1=Talk Amongst Yourselves
TTITLE2=Playing In The Distance
TTITLE3=Boner
TTITLE4=Peanut Dreams
TTITLE5=Cherry Tree
TTITLE6=Coming Round
TTITLE7=Daylight Goes
TTITLE8=North Sound Off
TTITLE9=Litter Bin
TTITLE10=Strange Magnificent Noise
TTITLE11=Litter Bin
TTITLE12=Talk Amongst Yourselves (Sasha Mix)
TTITLE13=Playing In The Distance (Glimmmix)
EXTD=YEAR: 2006
EXTT0=
EXTT1=
EXTT2=
EXTT3=
EXTT4=
EXTT5=
EXTT6=
EXTT7=
EXTT8=
EXTT9=
EXTT10=
EXTT11=
EXTT12=
EXTT13=
PLAYORDER=
